<?xml version="1.0" encoding="UTF-8" standalone="no"?>
<!DOCTYPE svg PUBLIC "-//W3C//DTD SVG 1.1//EN"
 "http://www.w3.org/Graphics/SVG/1.1/DTD/svg11.dtd">
<!-- Generated by graphviz version 2.47.0 (20210316.0004)
 -->
<!-- Title: dependencies Pages: 1 -->
<svg width="518pt" height="284pt"
 viewBox="0.00 0.00 518.00 284.00" xmlns="http://www.w3.org/2000/svg" xmlns:xlink="http://www.w3.org/1999/xlink">
<g id="graph0" class="graph" transform="scale(1 1) rotate(0) translate(4 280)">
<title>dependencies</title>
<polygon fill="white" stroke="transparent" points="-4,4 -4,-280 514,-280 514,4 -4,4"/>
<text text-anchor="start" x="234.01" y="-42.4" font-family="Times-12" font-weight="bold" font-size="14.00">Legend</text>
<polygon fill="#ffffb3" stroke="transparent" points="21,-10 21,-30 41,-30 41,-10 21,-10"/>
<text text-anchor="start" x="44.63" y="-15.4" font-family="Times-12" font-size="14.00"> &#160;Declarations</text>
<polygon fill="#8dd3c7" stroke="transparent" points="134,-10 134,-30 154,-30 154,-10 134,-10"/>
<text text-anchor="start" x="157.73" y="-15.4" font-family="Times-12" font-size="14.00"> &#160;Module</text>
<polygon fill="#80b1d3" stroke="transparent" points="220,-10 220,-30 240,-30 240,-10 220,-10"/>
<text text-anchor="start" x="243.78" y="-15.4" font-family="Times-12" font-size="14.00"> &#160;Bootstrap</text>
<polygon fill="#fdb462" stroke="transparent" points="317,-10 317,-30 337,-30 337,-10 317,-10"/>
<text text-anchor="start" x="340.67" y="-15.4" font-family="Times-12" font-size="14.00"> &#160;Providers</text>
<polygon fill="#fb8072" stroke="transparent" points="413,-10 413,-30 433,-30 433,-10 413,-10"/>
<text text-anchor="start" x="436.73" y="-15.4" font-family="Times-12" font-size="14.00"> &#160;Exports</text>
<g id="clust1" class="cluster">
<title>cluster_LocationHistoryModule</title>
<polygon fill="none" stroke="black" stroke-dasharray="1,5" points="8,-70 8,-268 502,-268 502,-70 8,-70"/>
</g>
<g id="clust3" class="cluster">
<title>cluster_LocationHistoryModule_imports</title>
<polygon fill="none" stroke="black" points="246,-78 246,-130 494,-130 494,-78 246,-78"/>
</g>
<g id="clust4" class="cluster">
<title>cluster_LocationHistoryModule_exports</title>
<polygon fill="none" stroke="black" points="212,-208 212,-260 382,-260 382,-208 212,-208"/>
</g>
<g id="clust6" class="cluster">
<title>cluster_LocationHistoryModule_providers</title>
<polygon fill="none" stroke="black" points="16,-78 16,-130 238,-130 238,-78 16,-78"/>
</g>
<!-- NotificationModule -->
<g id="node1" class="node">
<title>NotificationModule</title>
<polygon fill="#8dd3c7" stroke="black" points="485.7,-122 482.7,-126 461.7,-126 458.7,-122 358.3,-122 358.3,-86 485.7,-86 485.7,-122"/>
<text text-anchor="middle" x="422" y="-99.8" font-family="Times,serif" font-size="14.00">NotificationModule</text>
</g>
<!-- LocationHistoryModule -->
<g id="node3" class="node">
<title>LocationHistoryModule</title>
<polygon fill="#8dd3c7" stroke="black" points="372.81,-187 369.81,-191 348.81,-191 345.81,-187 221.19,-187 221.19,-151 372.81,-151 372.81,-187"/>
<text text-anchor="middle" x="297" y="-164.8" font-family="Times,serif" font-size="14.00">LocationHistoryModule</text>
</g>
<!-- NotificationModule&#45;&gt;LocationHistoryModule -->
<g id="edge1" class="edge">
<title>NotificationModule&#45;&gt;LocationHistoryModule</title>
<path fill="none" stroke="black" d="M365.53,-122.11C365.53,-122.11 365.53,-140.99 365.53,-140.99"/>
<polygon fill="black" stroke="black" points="362.03,-140.99 365.53,-150.99 369.03,-140.99 362.03,-140.99"/>
</g>
<!-- UserModule -->
<g id="node2" class="node">
<title>UserModule</title>
<polygon fill="#8dd3c7" stroke="black" points="339.98,-122 336.98,-126 315.98,-126 312.98,-122 254.02,-122 254.02,-86 339.98,-86 339.98,-122"/>
<text text-anchor="middle" x="297" y="-99.8" font-family="Times,serif" font-size="14.00">UserModule</text>
</g>
<!-- UserModule&#45;&gt;LocationHistoryModule -->
<g id="edge2" class="edge">
<title>UserModule&#45;&gt;LocationHistoryModule</title>
<path fill="none" stroke="black" d="M297,-122.11C297,-122.11 297,-140.99 297,-140.99"/>
<polygon fill="black" stroke="black" points="293.5,-140.99 297,-150.99 300.5,-140.99 293.5,-140.99"/>
</g>
<!-- LocationHistoryService  -->
<g id="node4" class="node">
<title>LocationHistoryService </title>
<polygon fill="#fb8072" stroke="black" points="373.73,-252 220.27,-252 220.27,-216 373.73,-216 373.73,-252"/>
<text text-anchor="middle" x="297" y="-229.8" font-family="Times,serif" font-size="14.00">LocationHistoryService </text>
</g>
<!-- LocationHistoryModule&#45;&gt;LocationHistoryService  -->
<g id="edge3" class="edge">
<title>LocationHistoryModule&#45;&gt;LocationHistoryService </title>
<path fill="none" stroke="black" stroke-dasharray="5,2" d="M297,-187.11C297,-187.11 297,-205.99 297,-205.99"/>
<polygon fill="black" stroke="black" points="293.5,-205.99 297,-215.99 300.5,-205.99 293.5,-205.99"/>
</g>
<!-- LocationHistoryService -->
<g id="node5" class="node">
<title>LocationHistoryService</title>
<ellipse fill="#fdb462" stroke="black" cx="127" cy="-104" rx="103.07" ry="18"/>
<text text-anchor="middle" x="127" y="-99.8" font-family="Times,serif" font-size="14.00">LocationHistoryService</text>
</g>
<!-- LocationHistoryService&#45;&gt;LocationHistoryModule -->
<g id="edge4" class="edge">
<title>LocationHistoryService&#45;&gt;LocationHistoryModule</title>
<path fill="none" stroke="black" d="M225.82,-109.54C225.82,-109.54 225.82,-140.75 225.82,-140.75"/>
<polygon fill="black" stroke="black" points="222.32,-140.75 225.82,-150.75 229.32,-140.75 222.32,-140.75"/>
</g>
</g>
</svg>
