<?xml version="1.0" encoding="UTF-8" standalone="no"?>
<!DOCTYPE svg PUBLIC "-//W3C//DTD SVG 1.1//EN"
 "http://www.w3.org/Graphics/SVG/1.1/DTD/svg11.dtd">
<!-- Generated by graphviz version 2.47.0 (20210316.0004)
 -->
<!-- Title: dependencies Pages: 1 -->
<svg width="562pt" height="211pt"
 viewBox="0.00 0.00 562.00 211.00" xmlns="http://www.w3.org/2000/svg" xmlns:xlink="http://www.w3.org/1999/xlink">
<g id="graph0" class="graph" transform="scale(1 1) rotate(0) translate(4 207)">
<title>dependencies</title>
<polygon fill="white" stroke="transparent" points="-4,4 -4,-207 558,-207 558,4 -4,4"/>
<text text-anchor="start" x="256.01" y="-42.4" font-family="Times-12" font-weight="bold" font-size="14.00">Legend</text>
<polygon fill="#ffffb3" stroke="transparent" points="43,-10 43,-30 63,-30 63,-10 43,-10"/>
<text text-anchor="start" x="66.63" y="-15.4" font-family="Times-12" font-size="14.00"> &#160;Declarations</text>
<polygon fill="#8dd3c7" stroke="transparent" points="156,-10 156,-30 176,-30 176,-10 156,-10"/>
<text text-anchor="start" x="179.73" y="-15.4" font-family="Times-12" font-size="14.00"> &#160;Module</text>
<polygon fill="#80b1d3" stroke="transparent" points="242,-10 242,-30 262,-30 262,-10 242,-10"/>
<text text-anchor="start" x="265.78" y="-15.4" font-family="Times-12" font-size="14.00"> &#160;Bootstrap</text>
<polygon fill="#fdb462" stroke="transparent" points="339,-10 339,-30 359,-30 359,-10 339,-10"/>
<text text-anchor="start" x="362.67" y="-15.4" font-family="Times-12" font-size="14.00"> &#160;Providers</text>
<polygon fill="#fb8072" stroke="transparent" points="435,-10 435,-30 455,-30 455,-10 435,-10"/>
<text text-anchor="start" x="458.73" y="-15.4" font-family="Times-12" font-size="14.00"> &#160;Exports</text>
<g id="clust1" class="cluster">
<title>cluster_AppModule</title>
<polygon fill="none" stroke="black" stroke-dasharray="1,5" points="8,-70 8,-195 546,-195 546,-70 8,-70"/>
</g>
<g id="clust3" class="cluster">
<title>cluster_AppModule_imports</title>
<polygon fill="none" stroke="black" points="16,-78 16,-130 538,-130 538,-78 16,-78"/>
</g>
<!-- AuthModule -->
<g id="node1" class="node">
<title>AuthModule</title>
<polygon fill="#8dd3c7" stroke="black" points="529.55,-122 526.55,-126 505.55,-126 502.55,-122 442.45,-122 442.45,-86 529.55,-86 529.55,-122"/>
<text text-anchor="middle" x="486" y="-99.8" font-family="Times,serif" font-size="14.00">AuthModule</text>
</g>
<!-- AppModule -->
<g id="node5" class="node">
<title>AppModule</title>
<polygon fill="#8dd3c7" stroke="black" points="233.66,-187 230.66,-191 209.66,-191 206.66,-187 150.34,-187 150.34,-151 233.66,-151 233.66,-187"/>
<text text-anchor="middle" x="192" y="-164.8" font-family="Times,serif" font-size="14.00">AppModule</text>
</g>
<!-- AuthModule&#45;&gt;AppModule -->
<g id="edge1" class="edge">
<title>AuthModule&#45;&gt;AppModule</title>
<path fill="none" stroke="black" d="M486,-122.28C486,-143.32 486,-175 486,-175 486,-175 243.81,-175 243.81,-175"/>
<polygon fill="black" stroke="black" points="243.81,-171.5 233.81,-175 243.81,-178.5 243.81,-171.5"/>
</g>
<!-- LocationHistoryModule -->
<g id="node2" class="node">
<title>LocationHistoryModule</title>
<polygon fill="#8dd3c7" stroke="black" points="424.81,-122 421.81,-126 400.81,-126 397.81,-122 273.19,-122 273.19,-86 424.81,-86 424.81,-122"/>
<text text-anchor="middle" x="349" y="-99.8" font-family="Times,serif" font-size="14.00">LocationHistoryModule</text>
</g>
<!-- LocationHistoryModule&#45;&gt;AppModule -->
<g id="edge2" class="edge">
<title>LocationHistoryModule&#45;&gt;AppModule</title>
<path fill="none" stroke="black" d="M349,-122.02C349,-139.37 349,-163 349,-163 349,-163 243.66,-163 243.66,-163"/>
<polygon fill="black" stroke="black" points="243.66,-159.5 233.66,-163 243.66,-166.5 243.66,-159.5"/>
</g>
<!-- NotificationModule -->
<g id="node3" class="node">
<title>NotificationModule</title>
<polygon fill="#8dd3c7" stroke="black" points="255.7,-122 252.7,-126 231.7,-126 228.7,-122 128.3,-122 128.3,-86 255.7,-86 255.7,-122"/>
<text text-anchor="middle" x="192" y="-99.8" font-family="Times,serif" font-size="14.00">NotificationModule</text>
</g>
<!-- NotificationModule&#45;&gt;AppModule -->
<g id="edge3" class="edge">
<title>NotificationModule&#45;&gt;AppModule</title>
<path fill="none" stroke="black" d="M178.06,-122.11C178.06,-122.11 178.06,-140.99 178.06,-140.99"/>
<polygon fill="black" stroke="black" points="174.56,-140.99 178.06,-150.99 181.56,-140.99 174.56,-140.99"/>
</g>
<!-- NotificationModule&#45;&gt;AppModule -->
<g id="edge4" class="edge">
<title>NotificationModule&#45;&gt;AppModule</title>
<path fill="none" stroke="black" d="M205.94,-122.11C205.94,-122.11 205.94,-140.99 205.94,-140.99"/>
<polygon fill="black" stroke="black" points="202.44,-140.99 205.94,-150.99 209.44,-140.99 202.44,-140.99"/>
</g>
<!-- UserModule -->
<g id="node4" class="node">
<title>UserModule</title>
<polygon fill="#8dd3c7" stroke="black" points="109.98,-122 106.98,-126 85.98,-126 82.98,-122 24.02,-122 24.02,-86 109.98,-86 109.98,-122"/>
<text text-anchor="middle" x="67" y="-99.8" font-family="Times,serif" font-size="14.00">UserModule</text>
</g>
<!-- UserModule&#45;&gt;AppModule -->
<g id="edge5" class="edge">
<title>UserModule&#45;&gt;AppModule</title>
<path fill="none" stroke="black" d="M67,-122.11C67,-141.34 67,-169 67,-169 67,-169 140.03,-169 140.03,-169"/>
<polygon fill="black" stroke="black" points="140.03,-172.5 150.03,-169 140.03,-165.5 140.03,-172.5"/>
</g>
</g>
</svg>
