<?xml version="1.0" encoding="UTF-8" standalone="no"?>
<!DOCTYPE svg PUBLIC "-//W3C//DTD SVG 1.1//EN"
 "http://www.w3.org/Graphics/SVG/1.1/DTD/svg11.dtd">
<!-- Generated by graphviz version 2.47.0 (20210316.0004)
 -->
<!-- Title: dependencies Pages: 1 -->
<svg width="1112pt" height="284pt"
 viewBox="0.00 0.00 1112.00 284.00" xmlns="http://www.w3.org/2000/svg" xmlns:xlink="http://www.w3.org/1999/xlink">
<g id="graph0" class="graph" transform="scale(1 1) rotate(0) translate(4 280)">
<title>dependencies</title>
<polygon fill="white" stroke="transparent" points="-4,4 -4,-280 1108,-280 1108,4 -4,4"/>
<text text-anchor="start" x="531.01" y="-42.4" font-family="Times-12" font-weight="bold" font-size="14.00">Legend</text>
<polygon fill="#ffffb3" stroke="transparent" points="318,-10 318,-30 338,-30 338,-10 318,-10"/>
<text text-anchor="start" x="341.63" y="-15.4" font-family="Times-12" font-size="14.00"> &#160;Declarations</text>
<polygon fill="#8dd3c7" stroke="transparent" points="431,-10 431,-30 451,-30 451,-10 431,-10"/>
<text text-anchor="start" x="454.73" y="-15.4" font-family="Times-12" font-size="14.00"> &#160;Module</text>
<polygon fill="#80b1d3" stroke="transparent" points="517,-10 517,-30 537,-30 537,-10 517,-10"/>
<text text-anchor="start" x="540.78" y="-15.4" font-family="Times-12" font-size="14.00"> &#160;Bootstrap</text>
<polygon fill="#fdb462" stroke="transparent" points="614,-10 614,-30 634,-30 634,-10 614,-10"/>
<text text-anchor="start" x="637.67" y="-15.4" font-family="Times-12" font-size="14.00"> &#160;Providers</text>
<polygon fill="#fb8072" stroke="transparent" points="710,-10 710,-30 730,-30 730,-10 710,-10"/>
<text text-anchor="start" x="733.73" y="-15.4" font-family="Times-12" font-size="14.00"> &#160;Exports</text>
<g id="clust1" class="cluster">
<title>cluster_NotificationModule</title>
<polygon fill="none" stroke="black" stroke-dasharray="1,5" points="8,-70 8,-268 1096,-268 1096,-70 8,-70"/>
</g>
<g id="clust4" class="cluster">
<title>cluster_NotificationModule_exports</title>
<polygon fill="none" stroke="black" points="408,-208 408,-260 694,-260 694,-208 408,-208"/>
</g>
<g id="clust6" class="cluster">
<title>cluster_NotificationModule_providers</title>
<polygon fill="none" stroke="black" points="16,-78 16,-130 1088,-130 1088,-78 16,-78"/>
</g>
<!-- GeocodingService  -->
<g id="node1" class="node">
<title>GeocodingService </title>
<polygon fill="#fb8072" stroke="black" points="686.4,-252 563.6,-252 563.6,-216 686.4,-216 686.4,-252"/>
<text text-anchor="middle" x="625" y="-229.8" font-family="Times,serif" font-size="14.00">GeocodingService </text>
</g>
<!-- NotificationService  -->
<g id="node2" class="node">
<title>NotificationService </title>
<polygon fill="#fb8072" stroke="black" points="545.63,-252 416.37,-252 416.37,-216 545.63,-216 545.63,-252"/>
<text text-anchor="middle" x="481" y="-229.8" font-family="Times,serif" font-size="14.00">NotificationService </text>
</g>
<!-- NotificationModule -->
<g id="node3" class="node">
<title>NotificationModule</title>
<polygon fill="#8dd3c7" stroke="black" points="616.7,-187 613.7,-191 592.7,-191 589.7,-187 489.3,-187 489.3,-151 616.7,-151 616.7,-187"/>
<text text-anchor="middle" x="553" y="-164.8" font-family="Times,serif" font-size="14.00">NotificationModule</text>
</g>
<!-- NotificationModule&#45;&gt;GeocodingService  -->
<g id="edge1" class="edge">
<title>NotificationModule&#45;&gt;GeocodingService </title>
<path fill="none" stroke="black" stroke-dasharray="5,2" d="M590.07,-187.11C590.07,-187.11 590.07,-205.99 590.07,-205.99"/>
<polygon fill="black" stroke="black" points="586.57,-205.99 590.07,-215.99 593.57,-205.99 586.57,-205.99"/>
</g>
<!-- NotificationModule&#45;&gt;NotificationService  -->
<g id="edge2" class="edge">
<title>NotificationModule&#45;&gt;NotificationService </title>
<path fill="none" stroke="black" stroke-dasharray="5,2" d="M517.48,-187.11C517.48,-187.11 517.48,-205.99 517.48,-205.99"/>
<polygon fill="black" stroke="black" points="513.98,-205.99 517.48,-215.99 520.98,-205.99 513.98,-205.99"/>
</g>
<!-- EmailProvider -->
<g id="node4" class="node">
<title>EmailProvider</title>
<ellipse fill="#fdb462" stroke="black" cx="1013" cy="-104" rx="67.21" ry="18"/>
<text text-anchor="middle" x="1013" y="-99.8" font-family="Times,serif" font-size="14.00">EmailProvider</text>
</g>
<!-- EmailProvider&#45;&gt;NotificationModule -->
<g id="edge3" class="edge">
<title>EmailProvider&#45;&gt;NotificationModule</title>
<path fill="none" stroke="black" d="M1013,-122.28C1013,-143.32 1013,-175 1013,-175 1013,-175 626.96,-175 626.96,-175"/>
<polygon fill="black" stroke="black" points="626.96,-171.5 616.96,-175 626.96,-178.5 626.96,-171.5"/>
</g>
<!-- GeocodingService -->
<g id="node5" class="node">
<title>GeocodingService</title>
<ellipse fill="#fdb462" stroke="black" cx="845" cy="-104" rx="82.23" ry="18"/>
<text text-anchor="middle" x="845" y="-99.8" font-family="Times,serif" font-size="14.00">GeocodingService</text>
</g>
<!-- GeocodingService&#45;&gt;NotificationModule -->
<g id="edge4" class="edge">
<title>GeocodingService&#45;&gt;NotificationModule</title>
<path fill="none" stroke="black" d="M845,-122.02C845,-139.37 845,-163 845,-163 845,-163 626.72,-163 626.72,-163"/>
<polygon fill="black" stroke="black" points="626.72,-159.5 616.72,-163 626.72,-166.5 626.72,-159.5"/>
</g>
<!-- GooglePlacesService -->
<g id="node6" class="node">
<title>GooglePlacesService</title>
<ellipse fill="#fdb462" stroke="black" cx="652" cy="-104" rx="93.17" ry="18"/>
<text text-anchor="middle" x="652" y="-99.8" font-family="Times,serif" font-size="14.00">GooglePlacesService</text>
</g>
<!-- GooglePlacesService&#45;&gt;NotificationModule -->
<g id="edge5" class="edge">
<title>GooglePlacesService&#45;&gt;NotificationModule</title>
<path fill="none" stroke="black" d="M587.76,-117.15C587.76,-117.15 587.76,-140.69 587.76,-140.69"/>
<polygon fill="black" stroke="black" points="584.26,-140.69 587.76,-150.69 591.26,-140.69 584.26,-140.69"/>
</g>
<!-- NotificationService -->
<g id="node7" class="node">
<title>NotificationService</title>
<ellipse fill="#fdb462" stroke="black" cx="454" cy="-104" rx="86.81" ry="18"/>
<text text-anchor="middle" x="454" y="-99.8" font-family="Times,serif" font-size="14.00">NotificationService</text>
</g>
<!-- NotificationService&#45;&gt;NotificationModule -->
<g id="edge6" class="edge">
<title>NotificationService&#45;&gt;NotificationModule</title>
<path fill="none" stroke="black" d="M515.03,-116.84C515.03,-116.84 515.03,-140.52 515.03,-140.52"/>
<polygon fill="black" stroke="black" points="511.53,-140.52 515.03,-150.52 518.53,-140.52 511.53,-140.52"/>
</g>
<!-- SmsProvider -->
<g id="node8" class="node">
<title>SmsProvider</title>
<ellipse fill="#fdb462" stroke="black" cx="288" cy="-104" rx="60.85" ry="18"/>
<text text-anchor="middle" x="288" y="-99.8" font-family="Times,serif" font-size="14.00">SmsProvider</text>
</g>
<!-- SmsProvider&#45;&gt;NotificationModule -->
<g id="edge7" class="edge">
<title>SmsProvider&#45;&gt;NotificationModule</title>
<path fill="none" stroke="black" d="M288,-122.02C288,-139.37 288,-163 288,-163 288,-163 479.19,-163 479.19,-163"/>
<polygon fill="black" stroke="black" points="479.19,-166.5 489.19,-163 479.19,-159.5 479.19,-166.5"/>
</g>
<!-- TouristPlacesService -->
<g id="node9" class="node">
<title>TouristPlacesService</title>
<ellipse fill="#fdb462" stroke="black" cx="117" cy="-104" rx="92.61" ry="18"/>
<text text-anchor="middle" x="117" y="-99.8" font-family="Times,serif" font-size="14.00">TouristPlacesService</text>
</g>
<!-- TouristPlacesService&#45;&gt;NotificationModule -->
<g id="edge8" class="edge">
<title>TouristPlacesService&#45;&gt;NotificationModule</title>
<path fill="none" stroke="black" d="M117,-122.28C117,-143.32 117,-175 117,-175 117,-175 479.13,-175 479.13,-175"/>
<polygon fill="black" stroke="black" points="479.13,-178.5 489.13,-175 479.13,-171.5 479.13,-178.5"/>
</g>
</g>
</svg>
