<?xml version="1.0" encoding="UTF-8" standalone="no"?>
<!DOCTYPE svg PUBLIC "-//W3C//DTD SVG 1.1//EN"
 "http://www.w3.org/Graphics/SVG/1.1/DTD/svg11.dtd">
<!-- Generated by graphviz version 2.47.0 (20210316.0004)
 -->
<!-- Title: dependencies Pages: 1 -->
<svg width="2231pt" height="382pt"
 viewBox="0.00 0.00 2231.00 382.00" xmlns="http://www.w3.org/2000/svg" xmlns:xlink="http://www.w3.org/1999/xlink">
<g id="graph0" class="graph" transform="scale(1 1) rotate(0) translate(4 378)">
<title>dependencies</title>
<polygon fill="white" stroke="transparent" points="-4,4 -4,-378 2227,-378 2227,4 -4,4"/>
<text text-anchor="start" x="1090.51" y="-42.4" font-family="Times-12" font-weight="bold" font-size="14.00">Legend</text>
<polygon fill="#ffffb3" stroke="transparent" points="877.5,-10 877.5,-30 897.5,-30 897.5,-10 877.5,-10"/>
<text text-anchor="start" x="901.13" y="-15.4" font-family="Times-12" font-size="14.00"> &#160;Declarations</text>
<polygon fill="#8dd3c7" stroke="transparent" points="990.5,-10 990.5,-30 1010.5,-30 1010.5,-10 990.5,-10"/>
<text text-anchor="start" x="1014.23" y="-15.4" font-family="Times-12" font-size="14.00"> &#160;Module</text>
<polygon fill="#80b1d3" stroke="transparent" points="1076.5,-10 1076.5,-30 1096.5,-30 1096.5,-10 1076.5,-10"/>
<text text-anchor="start" x="1100.28" y="-15.4" font-family="Times-12" font-size="14.00"> &#160;Bootstrap</text>
<polygon fill="#fdb462" stroke="transparent" points="1173.5,-10 1173.5,-30 1193.5,-30 1193.5,-10 1173.5,-10"/>
<text text-anchor="start" x="1197.17" y="-15.4" font-family="Times-12" font-size="14.00"> &#160;Providers</text>
<polygon fill="#fb8072" stroke="transparent" points="1269.5,-10 1269.5,-30 1289.5,-30 1289.5,-10 1269.5,-10"/>
<text text-anchor="start" x="1293.23" y="-15.4" font-family="Times-12" font-size="14.00"> &#160;Exports</text>
<g id="clust1" class="cluster">
<title>cluster_AppModule</title>
<polygon fill="none" stroke="black" stroke-dasharray="1,5" points="643,-146 643,-358 964,-358 964,-146 643,-146"/>
</g>
<g id="clust3" class="cluster">
<title>cluster_AppModule_imports</title>
<polygon fill="none" stroke="black" points="651,-154 651,-282 924,-282 924,-154 651,-154"/>
</g>
<g id="clust7" class="cluster">
<title>cluster_AuthModule</title>
<polygon fill="none" stroke="black" stroke-dasharray="1,5" points="239,-146 239,-214 635,-214 635,-146 239,-146"/>
</g>
<g id="clust10" class="cluster">
<title>cluster_AuthModule_exports</title>
<polygon fill="none" stroke="black" points="521,-154 521,-206 627,-206 627,-154 521,-154"/>
</g>
<g id="clust12" class="cluster">
<title>cluster_AuthModule_providers</title>
<polygon fill="none" stroke="black" points="247,-154 247,-206 513,-206 513,-154 247,-154"/>
</g>
<g id="clust13" class="cluster">
<title>cluster_LocationHistoryModule</title>
<polygon fill="none" stroke="black" stroke-dasharray="1,5" points="972,-298 972,-366 1388,-366 1388,-298 972,-298"/>
</g>
<g id="clust16" class="cluster">
<title>cluster_LocationHistoryModule_exports</title>
<polygon fill="none" stroke="black" points="1210,-306 1210,-358 1380,-358 1380,-306 1210,-306"/>
</g>
<g id="clust18" class="cluster">
<title>cluster_LocationHistoryModule_providers</title>
<polygon fill="none" stroke="black" points="980,-306 980,-358 1202,-358 1202,-306 980,-306"/>
</g>
<g id="clust19" class="cluster">
<title>cluster_NotificationModule</title>
<polygon fill="none" stroke="black" stroke-dasharray="1,5" points="8,-70 8,-138 1390,-138 1390,-70 8,-70"/>
</g>
<g id="clust22" class="cluster">
<title>cluster_NotificationModule_exports</title>
<polygon fill="none" stroke="black" points="1096,-78 1096,-130 1382,-130 1382,-78 1096,-78"/>
</g>
<g id="clust24" class="cluster">
<title>cluster_NotificationModule_providers</title>
<polygon fill="none" stroke="black" points="16,-78 16,-130 1088,-130 1088,-78 16,-78"/>
</g>
<g id="clust25" class="cluster">
<title>cluster_TemplatePlaygroundModule</title>
<polygon fill="none" stroke="black" stroke-dasharray="1,5" points="1398,-70 1398,-290 2215,-290 2215,-70 1398,-70"/>
</g>
<g id="clust26" class="cluster">
<title>cluster_TemplatePlaygroundModule_declarations</title>
<polygon fill="none" stroke="black" points="1993,-78 1993,-130 2207,-130 2207,-78 1993,-78"/>
</g>
<g id="clust30" class="cluster">
<title>cluster_TemplatePlaygroundModule_bootstrap</title>
<polygon fill="none" stroke="black" points="1684,-230 1684,-282 1902,-282 1902,-230 1684,-230"/>
</g>
<g id="clust31" class="cluster">
<title>cluster_TemplatePlaygroundModule_providers</title>
<polygon fill="none" stroke="black" points="1406,-78 1406,-130 1985,-130 1985,-78 1406,-78"/>
</g>
<g id="clust32" class="cluster">
<title>cluster_UserModule</title>
<polygon fill="none" stroke="black" stroke-dasharray="1,5" points="972,-222 972,-290 1232,-290 1232,-222 972,-222"/>
</g>
<g id="clust35" class="cluster">
<title>cluster_UserModule_exports</title>
<polygon fill="none" stroke="black" points="1120,-230 1120,-282 1224,-282 1224,-230 1120,-230"/>
</g>
<g id="clust37" class="cluster">
<title>cluster_UserModule_providers</title>
<polygon fill="none" stroke="black" points="980,-230 980,-282 1112,-282 1112,-230 980,-230"/>
</g>
<!-- AuthModule -->
<g id="node1" class="node">
<title>AuthModule</title>
<polygon fill="#8dd3c7" stroke="black" points="746.55,-274 743.55,-278 722.55,-278 719.55,-274 659.45,-274 659.45,-238 746.55,-238 746.55,-274"/>
<text text-anchor="middle" x="703" y="-251.8" font-family="Times,serif" font-size="14.00">AuthModule</text>
</g>
<!-- AppModule -->
<g id="node5" class="node">
<title>AppModule</title>
<polygon fill="#8dd3c7" stroke="black" points="955.66,-350 952.66,-354 931.66,-354 928.66,-350 872.34,-350 872.34,-314 955.66,-314 955.66,-350"/>
<text text-anchor="middle" x="914" y="-327.8" font-family="Times,serif" font-size="14.00">AppModule</text>
</g>
<!-- AuthModule&#45;&gt;AppModule -->
<g id="edge1" class="edge">
<title>AuthModule&#45;&gt;AppModule</title>
<path fill="none" stroke="black" d="M703,-274.03C703,-298.98 703,-341 703,-341 703,-341 862.31,-341 862.31,-341"/>
<polygon fill="black" stroke="black" points="862.31,-344.5 872.31,-341 862.31,-337.5 862.31,-344.5"/>
</g>
<!-- AuthService  -->
<g id="node6" class="node">
<title>AuthService </title>
<polygon fill="#fb8072" stroke="black" points="618.98,-198 529.02,-198 529.02,-162 618.98,-162 618.98,-198"/>
<text text-anchor="middle" x="574" y="-175.8" font-family="Times,serif" font-size="14.00">AuthService </text>
</g>
<!-- AuthModule&#45;&gt;AuthService  -->
<g id="edge7" class="edge">
<title>AuthModule&#45;&gt;AuthService </title>
<path fill="none" stroke="black" stroke-dasharray="5,2" d="M671.81,-237.99C671.81,-215.51 671.81,-180 671.81,-180 671.81,-180 628.9,-180 628.9,-180"/>
<polygon fill="black" stroke="black" points="628.9,-176.5 618.9,-180 628.9,-183.5 628.9,-176.5"/>
</g>
<!-- LocationHistoryModule -->
<g id="node2" class="node">
<title>LocationHistoryModule</title>
<polygon fill="#8dd3c7" stroke="black" points="915.81,-274 912.81,-278 891.81,-278 888.81,-274 764.19,-274 764.19,-238 915.81,-238 915.81,-274"/>
<text text-anchor="middle" x="840" y="-251.8" font-family="Times,serif" font-size="14.00">LocationHistoryModule</text>
</g>
<!-- LocationHistoryModule&#45;&gt;AppModule -->
<g id="edge2" class="edge">
<title>LocationHistoryModule&#45;&gt;AppModule</title>
<path fill="none" stroke="black" d="M886.67,-274.01C886.67,-274.01 886.67,-303.85 886.67,-303.85"/>
<polygon fill="black" stroke="black" points="883.17,-303.85 886.67,-313.85 890.17,-303.85 883.17,-303.85"/>
</g>
<!-- LocationHistoryService  -->
<g id="node9" class="node">
<title>LocationHistoryService </title>
<polygon fill="#fb8072" stroke="black" points="1371.73,-350 1218.27,-350 1218.27,-314 1371.73,-314 1371.73,-350"/>
<text text-anchor="middle" x="1295" y="-327.8" font-family="Times,serif" font-size="14.00">LocationHistoryService </text>
</g>
<!-- LocationHistoryModule&#45;&gt;LocationHistoryService  -->
<g id="edge12" class="edge">
<title>LocationHistoryModule&#45;&gt;LocationHistoryService </title>
<path fill="none" stroke="black" stroke-dasharray="5,2" d="M901.16,-274.11C901.16,-283.9 901.16,-294 901.16,-294 901.16,-294 1225.97,-294 1225.97,-294 1225.97,-294 1225.97,-303.89 1225.97,-303.89"/>
<polygon fill="black" stroke="black" points="1222.47,-303.89 1225.97,-313.89 1229.47,-303.89 1222.47,-303.89"/>
</g>
<!-- NotificationModule -->
<g id="node3" class="node">
<title>NotificationModule</title>
<polygon fill="#8dd3c7" stroke="black" points="811.7,-198 808.7,-202 787.7,-202 784.7,-198 684.3,-198 684.3,-162 811.7,-162 811.7,-198"/>
<text text-anchor="middle" x="748" y="-175.8" font-family="Times,serif" font-size="14.00">NotificationModule</text>
</g>
<!-- NotificationModule&#45;&gt;LocationHistoryModule -->
<g id="edge10" class="edge">
<title>NotificationModule&#45;&gt;LocationHistoryModule</title>
<path fill="none" stroke="black" d="M787.97,-198.01C787.97,-198.01 787.97,-227.85 787.97,-227.85"/>
<polygon fill="black" stroke="black" points="784.47,-227.85 787.97,-237.85 791.47,-227.85 784.47,-227.85"/>
</g>
<!-- NotificationModule&#45;&gt;AppModule -->
<g id="edge3" class="edge">
<title>NotificationModule&#45;&gt;AppModule</title>
<path fill="none" stroke="black" d="M752.63,-198.03C752.63,-238.3 752.63,-332 752.63,-332 752.63,-332 862.02,-332 862.02,-332"/>
<polygon fill="black" stroke="black" points="862.02,-335.5 872.02,-332 862.02,-328.5 862.02,-335.5"/>
</g>
<!-- NotificationModule&#45;&gt;AppModule -->
<g id="edge4" class="edge">
<title>NotificationModule&#45;&gt;AppModule</title>
<path fill="none" stroke="black" d="M758.49,-198.11C758.49,-236.59 758.49,-323 758.49,-323 758.49,-323 862.33,-323 862.33,-323"/>
<polygon fill="black" stroke="black" points="862.33,-326.5 872.33,-323 862.33,-319.5 862.33,-326.5"/>
</g>
<!-- GeocodingService  -->
<g id="node11" class="node">
<title>GeocodingService </title>
<polygon fill="#fb8072" stroke="black" points="1374.4,-122 1251.6,-122 1251.6,-86 1374.4,-86 1374.4,-122"/>
<text text-anchor="middle" x="1313" y="-99.8" font-family="Times,serif" font-size="14.00">GeocodingService </text>
</g>
<!-- NotificationModule&#45;&gt;GeocodingService  -->
<g id="edge14" class="edge">
<title>NotificationModule&#45;&gt;GeocodingService </title>
<path fill="none" stroke="black" stroke-dasharray="5,2" d="M792.01,-161.88C792.01,-159.03 792.01,-157 792.01,-157 792.01,-157 1311.58,-157 1311.58,-157 1311.58,-157 1311.58,-132.24 1311.58,-132.24"/>
<polygon fill="black" stroke="black" points="1315.08,-132.24 1311.58,-122.24 1308.08,-132.24 1315.08,-132.24"/>
</g>
<!-- NotificationService  -->
<g id="node12" class="node">
<title>NotificationService </title>
<polygon fill="#fb8072" stroke="black" points="1233.63,-122 1104.37,-122 1104.37,-86 1233.63,-86 1233.63,-122"/>
<text text-anchor="middle" x="1169" y="-99.8" font-family="Times,serif" font-size="14.00">NotificationService </text>
</g>
<!-- NotificationModule&#45;&gt;NotificationService  -->
<g id="edge15" class="edge">
<title>NotificationModule&#45;&gt;NotificationService </title>
<path fill="none" stroke="black" stroke-dasharray="5,2" d="M782.22,-161.8C782.22,-155.97 782.22,-151 782.22,-151 782.22,-151 1116.24,-151 1116.24,-151 1116.24,-151 1116.24,-132.04 1116.24,-132.04"/>
<polygon fill="black" stroke="black" points="1119.74,-132.04 1116.24,-122.04 1112.74,-132.04 1119.74,-132.04"/>
</g>
<!-- UserModule -->
<g id="node4" class="node">
<title>UserModule</title>
<polygon fill="#8dd3c7" stroke="black" points="915.98,-198 912.98,-202 891.98,-202 888.98,-198 830.02,-198 830.02,-162 915.98,-162 915.98,-198"/>
<text text-anchor="middle" x="873" y="-175.8" font-family="Times,serif" font-size="14.00">UserModule</text>
</g>
<!-- UserModule&#45;&gt;AuthModule -->
<g id="edge6" class="edge">
<title>UserModule&#45;&gt;AuthModule</title>
<path fill="none" stroke="black" d="M858.56,-198.11C858.56,-207.9 858.56,-218 858.56,-218 858.56,-218 715.59,-218 715.59,-218 715.59,-218 715.59,-227.89 715.59,-227.89"/>
<polygon fill="black" stroke="black" points="712.09,-227.89 715.59,-237.89 719.09,-227.89 712.09,-227.89"/>
</g>
<!-- UserModule&#45;&gt;LocationHistoryModule -->
<g id="edge11" class="edge">
<title>UserModule&#45;&gt;LocationHistoryModule</title>
<path fill="none" stroke="black" d="M887.11,-198.01C887.11,-198.01 887.11,-227.85 887.11,-227.85"/>
<polygon fill="black" stroke="black" points="883.61,-227.85 887.11,-237.85 890.61,-227.85 883.61,-227.85"/>
</g>
<!-- UserModule&#45;&gt;AppModule -->
<g id="edge5" class="edge">
<title>UserModule&#45;&gt;AppModule</title>
<path fill="none" stroke="black" d="M916.09,-191C919.51,-191 921.68,-191 921.68,-191 921.68,-191 921.68,-303.86 921.68,-303.86"/>
<polygon fill="black" stroke="black" points="918.18,-303.86 921.68,-313.86 925.18,-303.86 918.18,-303.86"/>
</g>
<!-- UserService  -->
<g id="node25" class="node">
<title>UserService </title>
<polygon fill="#fb8072" stroke="black" points="1215.9,-274 1128.1,-274 1128.1,-238 1215.9,-238 1215.9,-274"/>
<text text-anchor="middle" x="1172" y="-251.8" font-family="Times,serif" font-size="14.00">UserService </text>
</g>
<!-- UserModule&#45;&gt;UserService  -->
<g id="edge27" class="edge">
<title>UserModule&#45;&gt;UserService </title>
<path fill="none" stroke="black" stroke-dasharray="5,2" d="M916.16,-177C998.96,-177 1172,-177 1172,-177 1172,-177 1172,-227.68 1172,-227.68"/>
<polygon fill="black" stroke="black" points="1168.5,-227.68 1172,-237.68 1175.5,-227.68 1168.5,-227.68"/>
</g>
<!-- AuthService -->
<g id="node7" class="node">
<title>AuthService</title>
<ellipse fill="#fdb462" stroke="black" cx="446" cy="-180" rx="59.11" ry="18"/>
<text text-anchor="middle" x="446" y="-175.8" font-family="Times,serif" font-size="14.00">AuthService</text>
</g>
<!-- AuthService&#45;&gt;AuthModule -->
<g id="edge8" class="edge">
<title>AuthService&#45;&gt;AuthModule</title>
<path fill="none" stroke="black" d="M446,-198.03C446,-218.77 446,-250 446,-250 446,-250 649.4,-250 649.4,-250"/>
<polygon fill="black" stroke="black" points="649.4,-253.5 659.4,-250 649.4,-246.5 649.4,-253.5"/>
</g>
<!-- JwtStrategy -->
<g id="node8" class="node">
<title>JwtStrategy</title>
<ellipse fill="#fdb462" stroke="black" cx="312" cy="-180" rx="56.76" ry="18"/>
<text text-anchor="middle" x="312" y="-175.8" font-family="Times,serif" font-size="14.00">JwtStrategy</text>
</g>
<!-- JwtStrategy&#45;&gt;AuthModule -->
<g id="edge9" class="edge">
<title>JwtStrategy&#45;&gt;AuthModule</title>
<path fill="none" stroke="black" d="M312,-198.2C312,-222.36 312,-262 312,-262 312,-262 649.29,-262 649.29,-262"/>
<polygon fill="black" stroke="black" points="649.29,-265.5 659.29,-262 649.29,-258.5 649.29,-265.5"/>
</g>
<!-- LocationHistoryService -->
<g id="node10" class="node">
<title>LocationHistoryService</title>
<ellipse fill="#fdb462" stroke="black" cx="1091" cy="-332" rx="103.07" ry="18"/>
<text text-anchor="middle" x="1091" y="-327.8" font-family="Times,serif" font-size="14.00">LocationHistoryService</text>
</g>
<!-- LocationHistoryService&#45;&gt;LocationHistoryModule -->
<g id="edge13" class="edge">
<title>LocationHistoryService&#45;&gt;LocationHistoryModule</title>
<path fill="none" stroke="black" d="M987.36,-332C977.89,-332 971.77,-332 971.77,-332 971.77,-332 971.77,-256 971.77,-256 971.77,-256 925.89,-256 925.89,-256"/>
<polygon fill="black" stroke="black" points="925.89,-252.5 915.89,-256 925.89,-259.5 925.89,-252.5"/>
</g>
<!-- EmailProvider -->
<g id="node13" class="node">
<title>EmailProvider</title>
<ellipse fill="#fdb462" stroke="black" cx="1013" cy="-104" rx="67.21" ry="18"/>
<text text-anchor="middle" x="1013" y="-99.8" font-family="Times,serif" font-size="14.00">EmailProvider</text>
</g>
<!-- EmailProvider&#45;&gt;NotificationModule -->
<g id="edge16" class="edge">
<title>EmailProvider&#45;&gt;NotificationModule</title>
<path fill="none" stroke="black" d="M950.74,-111.14C950.74,-122.89 950.74,-145 950.74,-145 950.74,-145 801.81,-145 801.81,-145 801.81,-145 801.81,-151.68 801.81,-151.68"/>
<polygon fill="black" stroke="black" points="798.31,-151.68 801.81,-161.68 805.31,-151.68 798.31,-151.68"/>
</g>
<!-- GeocodingService -->
<g id="node14" class="node">
<title>GeocodingService</title>
<ellipse fill="#fdb462" stroke="black" cx="845" cy="-104" rx="82.23" ry="18"/>
<text text-anchor="middle" x="845" y="-99.8" font-family="Times,serif" font-size="14.00">GeocodingService</text>
</g>
<!-- GeocodingService&#45;&gt;NotificationModule -->
<g id="edge17" class="edge">
<title>GeocodingService&#45;&gt;NotificationModule</title>
<path fill="none" stroke="black" d="M772.43,-112.72C772.43,-112.72 772.43,-151.88 772.43,-151.88"/>
<polygon fill="black" stroke="black" points="768.93,-151.88 772.43,-161.88 775.93,-151.88 768.93,-151.88"/>
</g>
<!-- GooglePlacesService -->
<g id="node15" class="node">
<title>GooglePlacesService</title>
<ellipse fill="#fdb462" stroke="black" cx="652" cy="-104" rx="93.17" ry="18"/>
<text text-anchor="middle" x="652" y="-99.8" font-family="Times,serif" font-size="14.00">GooglePlacesService</text>
</g>
<!-- GooglePlacesService&#45;&gt;NotificationModule -->
<g id="edge18" class="edge">
<title>GooglePlacesService&#45;&gt;NotificationModule</title>
<path fill="none" stroke="black" d="M732.95,-113.02C732.95,-113.02 732.95,-151.74 732.95,-151.74"/>
<polygon fill="black" stroke="black" points="729.45,-151.74 732.95,-161.74 736.45,-151.74 729.45,-151.74"/>
</g>
<!-- NotificationService -->
<g id="node16" class="node">
<title>NotificationService</title>
<ellipse fill="#fdb462" stroke="black" cx="454" cy="-104" rx="86.81" ry="18"/>
<text text-anchor="middle" x="454" y="-99.8" font-family="Times,serif" font-size="14.00">NotificationService</text>
</g>
<!-- NotificationService&#45;&gt;NotificationModule -->
<g id="edge19" class="edge">
<title>NotificationService&#45;&gt;NotificationModule</title>
<path fill="none" stroke="black" d="M534.96,-110.56C534.96,-117.66 534.96,-128 534.96,-128 534.96,-128 720.81,-128 720.81,-128 720.81,-128 720.81,-151.81 720.81,-151.81"/>
<polygon fill="black" stroke="black" points="717.31,-151.81 720.81,-161.81 724.31,-151.81 717.31,-151.81"/>
</g>
<!-- SmsProvider -->
<g id="node17" class="node">
<title>SmsProvider</title>
<ellipse fill="#fdb462" stroke="black" cx="288" cy="-104" rx="60.85" ry="18"/>
<text text-anchor="middle" x="288" y="-99.8" font-family="Times,serif" font-size="14.00">SmsProvider</text>
</g>
<!-- SmsProvider&#45;&gt;NotificationModule -->
<g id="edge20" class="edge">
<title>SmsProvider&#45;&gt;NotificationModule</title>
<path fill="none" stroke="black" d="M302.15,-121.8C302.15,-128.26 302.15,-134 302.15,-134 302.15,-134 708.67,-134 708.67,-134 708.67,-134 708.67,-151.82 708.67,-151.82"/>
<polygon fill="black" stroke="black" points="705.18,-151.82 708.67,-161.82 712.18,-151.82 705.18,-151.82"/>
</g>
<!-- TouristPlacesService -->
<g id="node18" class="node">
<title>TouristPlacesService</title>
<ellipse fill="#fdb462" stroke="black" cx="117" cy="-104" rx="92.61" ry="18"/>
<text text-anchor="middle" x="117" y="-99.8" font-family="Times,serif" font-size="14.00">TouristPlacesService</text>
</g>
<!-- TouristPlacesService&#45;&gt;NotificationModule -->
<g id="edge21" class="edge">
<title>TouristPlacesService&#45;&gt;NotificationModule</title>
<path fill="none" stroke="black" d="M117,-122C117,-131 117,-140 117,-140 117,-140 696.54,-140 696.54,-140 696.54,-140 696.54,-151.87 696.54,-151.87"/>
<polygon fill="black" stroke="black" points="693.04,-151.87 696.54,-161.87 700.04,-151.87 693.04,-151.87"/>
</g>
<!-- TemplatePlaygroundComponent -->
<g id="node19" class="node">
<title>TemplatePlaygroundComponent</title>
<polygon fill="#ffffb3" stroke="black" points="2199.25,-122 2000.75,-122 2000.75,-86 2199.25,-86 2199.25,-122"/>
<text text-anchor="middle" x="2100" y="-99.8" font-family="Times,serif" font-size="14.00">TemplatePlaygroundComponent</text>
</g>
<!-- TemplatePlaygroundModule -->
<g id="node20" class="node">
<title>TemplatePlaygroundModule</title>
<polygon fill="#8dd3c7" stroke="black" points="1881.47,-198 1878.47,-202 1857.47,-202 1854.47,-198 1704.53,-198 1704.53,-162 1881.47,-162 1881.47,-198"/>
<text text-anchor="middle" x="1793" y="-175.8" font-family="Times,serif" font-size="14.00">TemplatePlaygroundModule</text>
</g>
<!-- TemplatePlaygroundComponent&#45;&gt;TemplatePlaygroundModule -->
<g id="edge22" class="edge">
<title>TemplatePlaygroundComponent&#45;&gt;TemplatePlaygroundModule</title>
<path fill="none" stroke="black" d="M2100,-122.01C2100,-144.49 2100,-180 2100,-180 2100,-180 1891.8,-180 1891.8,-180"/>
<polygon fill="black" stroke="black" points="1891.8,-176.5 1881.8,-180 1891.8,-183.5 1891.8,-176.5"/>
</g>
<!-- TemplatePlaygroundComponent  -->
<g id="node21" class="node">
<title>TemplatePlaygroundComponent </title>
<polygon fill="#80b1d3" stroke="black" points="1894.25,-274 1691.75,-274 1691.75,-238 1894.25,-238 1894.25,-274"/>
<text text-anchor="middle" x="1793" y="-251.8" font-family="Times,serif" font-size="14.00">TemplatePlaygroundComponent </text>
</g>
<!-- TemplatePlaygroundModule&#45;&gt;TemplatePlaygroundComponent  -->
<g id="edge23" class="edge">
<title>TemplatePlaygroundModule&#45;&gt;TemplatePlaygroundComponent </title>
<path fill="none" stroke="black" stroke-dasharray="1,5" d="M1793,-198.01C1793,-198.01 1793,-227.85 1793,-227.85"/>
<polygon fill="black" stroke="black" points="1789.5,-227.85 1793,-237.85 1796.5,-227.85 1789.5,-227.85"/>
</g>
<!-- HbsRenderService -->
<g id="node22" class="node">
<title>HbsRenderService</title>
<ellipse fill="#fdb462" stroke="black" cx="1894" cy="-104" rx="83.37" ry="18"/>
<text text-anchor="middle" x="1894" y="-99.8" font-family="Times,serif" font-size="14.00">HbsRenderService</text>
</g>
<!-- HbsRenderService&#45;&gt;TemplatePlaygroundModule -->
<g id="edge24" class="edge">
<title>HbsRenderService&#45;&gt;TemplatePlaygroundModule</title>
<path fill="none" stroke="black" d="M1846.03,-119.02C1846.03,-119.02 1846.03,-151.8 1846.03,-151.8"/>
<polygon fill="black" stroke="black" points="1842.53,-151.8 1846.03,-161.8 1849.53,-151.8 1842.53,-151.8"/>
</g>
<!-- TemplateEditorService -->
<g id="node23" class="node">
<title>TemplateEditorService</title>
<ellipse fill="#fdb462" stroke="black" cx="1692" cy="-104" rx="100.7" ry="18"/>
<text text-anchor="middle" x="1692" y="-99.8" font-family="Times,serif" font-size="14.00">TemplateEditorService</text>
</g>
<!-- TemplateEditorService&#45;&gt;TemplatePlaygroundModule -->
<g id="edge25" class="edge">
<title>TemplateEditorService&#45;&gt;TemplatePlaygroundModule</title>
<path fill="none" stroke="black" d="M1748.56,-119.02C1748.56,-119.02 1748.56,-151.8 1748.56,-151.8"/>
<polygon fill="black" stroke="black" points="1745.06,-151.8 1748.56,-161.8 1752.06,-151.8 1745.06,-151.8"/>
</g>
<!-- ZipExportService -->
<g id="node24" class="node">
<title>ZipExportService</title>
<ellipse fill="#fdb462" stroke="black" cx="1494" cy="-104" rx="79.87" ry="18"/>
<text text-anchor="middle" x="1494" y="-99.8" font-family="Times,serif" font-size="14.00">ZipExportService</text>
</g>
<!-- ZipExportService&#45;&gt;TemplatePlaygroundModule -->
<g id="edge26" class="edge">
<title>ZipExportService&#45;&gt;TemplatePlaygroundModule</title>
<path fill="none" stroke="black" d="M1494,-122.03C1494,-141.58 1494,-170 1494,-170 1494,-170 1694.5,-170 1694.5,-170"/>
<polygon fill="black" stroke="black" points="1694.5,-173.5 1704.5,-170 1694.5,-166.5 1694.5,-173.5"/>
</g>
<!-- UserService -->
<g id="node26" class="node">
<title>UserService</title>
<ellipse fill="#fdb462" stroke="black" cx="1046" cy="-256" rx="58.44" ry="18"/>
<text text-anchor="middle" x="1046" y="-251.8" font-family="Times,serif" font-size="14.00">UserService</text>
</g>
<!-- UserService&#45;&gt;UserModule -->
<g id="edge28" class="edge">
<title>UserService&#45;&gt;UserModule</title>
<path fill="none" stroke="black" d="M1034.07,-238.2C1034.07,-216.88 1034.07,-184 1034.07,-184 1034.07,-184 926.16,-184 926.16,-184"/>
<polygon fill="black" stroke="black" points="926.16,-180.5 916.16,-184 926.16,-187.5 926.16,-180.5"/>
</g>
</g>
</svg>
